<svg width="299" height="127" viewBox="0 0 299 127" fill="none" xmlns="http://www.w3.org/2000/svg">
<path d="M289.424 10.08C290.016 10.08 290.432 9.97333 290.672 9.76C290.912 9.54133 291.032 9.22933 291.032 8.824C291.032 8.62667 291.005 8.45333 290.952 8.304C290.904 8.15467 290.821 8.032 290.704 7.936C290.592 7.84 290.44 7.768 290.248 7.72C290.061 7.672 289.829 7.648 289.552 7.648H288.504V10.08H289.424ZM289.552 6.688C290.475 6.688 291.155 6.856 291.592 7.192C292.035 7.52267 292.256 8.01333 292.256 8.664C292.256 9.16533 292.115 9.592 291.832 9.944C291.549 10.296 291.125 10.536 290.56 10.664C290.651 10.7227 290.728 10.792 290.792 10.872C290.861 10.952 290.925 11.0453 290.984 11.152L292.808 13.824H291.616C291.44 13.824 291.312 13.7573 291.232 13.624L289.616 11.208C289.568 11.1387 289.509 11.0853 289.44 11.048C289.376 11.0107 289.275 10.992 289.136 10.992H288.504V13.824H287.256V6.688H289.552ZM289.648 15.392C290.117 15.392 290.568 15.3333 291 15.216C291.437 15.0933 291.843 14.9227 292.216 14.704C292.595 14.48 292.936 14.2133 293.24 13.904C293.549 13.5947 293.813 13.2507 294.032 12.872C294.251 12.488 294.419 12.0773 294.536 11.64C294.659 11.2027 294.72 10.7467 294.72 10.272C294.72 9.55733 294.587 8.888 294.32 8.264C294.059 7.63467 293.699 7.088 293.24 6.624C292.787 6.15467 292.251 5.78667 291.632 5.52C291.013 5.248 290.352 5.112 289.648 5.112C289.179 5.112 288.728 5.17333 288.296 5.296C287.864 5.41867 287.461 5.592 287.088 5.816C286.72 6.03467 286.381 6.30133 286.072 6.616C285.768 6.93067 285.507 7.28 285.288 7.664C285.075 8.04267 284.909 8.45333 284.792 8.896C284.675 9.33867 284.616 9.79733 284.616 10.272C284.616 10.7467 284.675 11.2027 284.792 11.64C284.909 12.0773 285.075 12.488 285.288 12.872C285.507 13.2507 285.768 13.5947 286.072 13.904C286.381 14.2133 286.72 14.48 287.088 14.704C287.461 14.9227 287.864 15.0933 288.296 15.216C288.728 15.3333 289.179 15.392 289.648 15.392ZM289.648 4.416C290.187 4.416 290.704 4.48533 291.2 4.624C291.701 4.76267 292.168 4.96 292.6 5.216C293.032 5.472 293.427 5.77867 293.784 6.136C294.141 6.488 294.445 6.88267 294.696 7.32C294.952 7.752 295.149 8.21867 295.288 8.72C295.427 9.216 295.496 9.73333 295.496 10.272C295.496 10.8053 295.427 11.3227 295.288 11.824C295.149 12.32 294.952 12.784 294.696 13.216C294.445 13.648 294.141 14.0427 293.784 14.4C293.427 14.752 293.032 15.056 292.6 15.312C292.168 15.568 291.701 15.7653 291.2 15.904C290.704 16.0427 290.187 16.112 289.648 16.112C289.109 16.112 288.592 16.0427 288.096 15.904C287.6 15.7653 287.136 15.568 286.704 15.312C286.272 15.056 285.877 14.752 285.52 14.4C285.168 14.0427 284.864 13.648 284.608 13.216C284.352 12.784 284.155 12.32 284.016 11.824C283.877 11.328 283.808 10.8107 283.808 10.272C283.808 9.73333 283.877 9.216 284.016 8.72C284.155 8.21867 284.352 7.752 284.608 7.32C284.864 6.88267 285.168 6.488 285.52 6.136C285.877 5.77867 286.272 5.472 286.704 5.216C287.136 4.96 287.6 4.76267 288.096 4.624C288.592 4.48533 289.109 4.416 289.648 4.416Z" fill="#E2C62F"/>
<path d="M135.831 5.63356L106.052 51.6907L136.737 97.1438L110.4 97.4048L76.0608 51.9879L109.494 5.89457L135.831 5.63356ZM204.726 4.95077L174.953 51.0079L205.632 96.461L179.302 96.722L144.957 51.3051L178.396 5.21172L204.726 4.95077ZM28.0197 80.5297C22.8008 80.5815 20.902 75.8079 20.8614 71.7058L20.4828 33.4662C20.4195 27.0737 23.2498 24.3144 29.9569 24.2479L61.1038 23.9392L60.9284 6.22364L29.4441 6.53566C11.282 6.71566 0.096273 16.5438 0.251219 32.1936L0.652209 72.6942C0.802148 87.8383 11.9435 98.3045 27.7439 98.1479L62.9639 97.7988L62.7895 80.1851L28.0197 80.5297ZM264.535 44.2217L250.881 38.2388C244.515 35.4073 243.214 32.6485 243.179 29.1036C243.158 27.017 243.11 22.133 253.139 22.0336L282.016 21.7474L281.841 4.02693L252.964 4.31312C233.676 4.50427 222.704 13.6147 222.86 29.305C222.974 40.7975 228.941 49.1778 240.59 54.2082L254.951 60.4173C264.074 64.3422 264.868 67.526 264.894 70.1957C264.914 72.1707 264.973 78.1801 252.787 78.3009L222.437 78.6017L222.612 96.2142L253.299 95.91C273.74 95.7074 285.369 86.2174 285.207 69.8777C285.088 57.8538 279.291 50.6576 264.535 44.2217Z" fill="#E2C62F"/>
<mask id="mask0" style="mask-type:alpha" maskUnits="userSpaceOnUse" x="0" y="4" width="286" height="95">
<path d="M135.831 5.63356L106.052 51.6907L136.737 97.1438L110.4 97.4048L76.0608 51.9879L109.494 5.89457L135.831 5.63356ZM204.726 4.95077L174.953 51.0079L205.632 96.461L179.302 96.722L144.957 51.3051L178.396 5.21172L204.726 4.95077ZM28.0197 80.5297C22.8008 80.5815 20.902 75.8079 20.8614 71.7058L20.4828 33.4662C20.4195 27.0737 23.2498 24.3144 29.9569 24.2479L61.1038 23.9392L60.9284 6.22364L29.4441 6.53566C11.282 6.71566 0.096273 16.5438 0.251219 32.1936L0.652209 72.6942C0.802148 87.8383 11.9435 98.3045 27.7439 98.1479L62.9639 97.7988L62.7895 80.1851L28.0197 80.5297ZM264.535 44.2217L250.881 38.2388C244.515 35.4073 243.214 32.6485 243.179 29.1036C243.158 27.017 243.11 22.133 253.139 22.0336L282.016 21.7474L281.841 4.02693L252.964 4.31312C233.676 4.50427 222.704 13.6147 222.86 29.305C222.974 40.7975 228.941 49.1778 240.59 54.2082L254.951 60.4173C264.074 64.3422 264.868 67.526 264.894 70.1957C264.914 72.1707 264.973 78.1801 252.787 78.3009L222.437 78.6017L222.612 96.2142L253.299 95.91C273.74 95.7074 285.369 86.2174 285.207 69.8777C285.088 57.8538 279.291 50.6576 264.535 44.2217Z" fill="white"/>
</mask>
<g mask="url(#mask0)">
<path d="M126.241 226.371C247.524 225.169 345.436 182.979 344.933 132.136C344.429 81.2944 245.702 41.0531 124.418 42.2551C3.13428 43.4571 -94.7775 85.6472 -94.2741 136.489C-93.7707 187.331 4.95717 227.573 126.241 226.371Z" fill="#BCA322"/>
</g>
<path d="M15.3979 123.038C15.4848 123.037 15.5618 123.072 15.629 123.143L16.2645 123.817C15.7894 124.374 15.216 124.809 14.5342 125.128C13.8523 125.447 13.0308 125.608 12.0595 125.618C11.2212 125.626 10.4581 125.485 9.77024 125.206C9.08237 124.921 8.49558 124.518 8.00474 123.996C7.51396 123.479 7.13451 122.848 6.85629 122.115C6.58324 121.386 6.44233 120.579 6.43362 119.7C6.42486 118.815 6.56 118.005 6.82874 117.266C7.09749 116.527 7.47976 115.894 7.98062 115.362C8.48142 114.825 9.07544 114.41 9.77287 114.112C10.4754 113.813 11.251 113.662 12.0945 113.654C12.9328 113.646 13.6651 113.771 14.3016 114.031C14.9432 114.291 15.5091 114.648 15.9992 115.099L15.48 115.835C15.4498 115.887 15.4093 115.933 15.3586 115.969C15.3027 116.006 15.2365 116.027 15.1496 116.028C15.0524 116.029 14.9292 115.974 14.7902 115.873C14.646 115.767 14.4607 115.646 14.2294 115.515C13.9981 115.389 13.7158 115.275 13.3722 115.171C13.0287 115.072 12.6039 115.02 12.1029 115.025C11.4997 115.031 10.9487 115.143 10.4498 115.353C9.95088 115.568 9.52454 115.879 9.16555 116.281C8.80651 116.679 8.53017 117.167 8.33137 117.742C8.13768 118.317 8.04692 118.962 8.05406 119.683C8.06125 120.41 8.16997 121.063 8.38518 121.629C8.60043 122.2 8.89145 122.678 9.25829 123.068C9.62001 123.458 10.0524 123.756 10.5452 123.96C11.0431 124.16 11.5706 124.257 12.1483 124.251C12.4959 124.248 12.8075 124.224 13.0883 124.186C13.369 124.142 13.6239 124.073 13.8633 123.984C14.0976 123.894 14.3163 123.78 14.5195 123.645C14.7227 123.515 14.9204 123.349 15.1231 123.163C15.2143 123.08 15.3059 123.039 15.3979 123.038Z" fill="#E2C62F"/>
<path d="M20.9748 118.059C20.2745 118.066 19.7193 118.276 19.3246 118.684C18.9247 119.092 18.6798 119.657 18.5898 120.379L23.1138 120.334C23.1105 119.997 23.0563 119.69 22.9563 119.405C22.8616 119.13 22.7212 118.891 22.5351 118.683C22.3542 118.485 22.1277 118.329 21.8659 118.219C21.6041 118.109 21.307 118.056 20.9748 118.059ZM20.9335 116.99C21.4243 116.986 21.8852 117.068 22.3111 117.227C22.7319 117.387 23.1023 117.624 23.4121 117.933C23.7219 118.241 23.966 118.628 24.1444 119.086C24.3227 119.545 24.4148 120.066 24.4206 120.654C24.4229 120.884 24.3988 121.038 24.3485 121.115C24.3032 121.187 24.2116 121.229 24.0736 121.23L18.5477 121.285C18.5631 121.812 18.6392 122.261 18.7759 122.648C18.9076 123.036 19.0947 123.351 19.3222 123.61C19.5548 123.863 19.8277 124.06 20.1458 124.179C20.464 124.304 20.8174 124.367 21.2059 124.363C21.574 124.36 21.8853 124.311 22.1503 124.226C22.4102 124.137 22.6393 124.047 22.8275 123.948C23.0208 123.849 23.1783 123.75 23.3053 123.672C23.4322 123.579 23.5392 123.537 23.6312 123.536C23.7539 123.535 23.8463 123.58 23.9137 123.672L24.3228 124.199C24.1511 124.416 23.9332 124.612 23.6894 124.773C23.4355 124.94 23.171 125.075 22.8857 125.18C22.6005 125.285 22.3047 125.365 22.0037 125.419C21.6975 125.479 21.3962 125.507 21.0997 125.51C20.5271 125.516 19.9996 125.419 19.5172 125.234C19.0348 125.045 18.6128 124.762 18.2564 124.398C17.9051 124.028 17.6245 123.565 17.4248 123.02C17.22 122.474 17.1217 121.841 17.1147 121.125C17.109 120.552 17.1905 120.009 17.3594 119.506C17.5333 119.004 17.7846 118.571 18.1133 118.2C18.4368 117.828 18.8428 117.533 19.3162 117.324C19.7946 117.104 20.3303 116.996 20.9335 116.99Z" fill="#E2C62F"/>
<path d="M26.2611 125.35L26.1792 117.08L27.0534 117.071C27.2578 117.069 27.3866 117.165 27.4397 117.364L27.5611 118.263C27.9201 117.866 28.3156 117.54 28.763 117.29C29.2053 117.04 29.7153 116.912 30.298 116.906C30.753 116.902 31.1524 116.969 31.4964 117.119C31.8455 117.264 32.1339 117.476 32.3718 117.75C32.6045 118.019 32.7816 118.35 32.9081 118.737C33.0295 119.119 33.095 119.543 33.0997 120.014L33.1518 125.282L31.6899 125.296L31.6377 120.028C31.6315 119.404 31.4836 118.92 31.1939 118.575C30.9042 118.23 30.468 118.066 29.8904 118.071C29.4559 118.076 29.0479 118.182 28.6768 118.395C28.3057 118.604 27.966 118.888 27.6628 119.244L27.7231 125.335L26.2611 125.35Z" fill="#E2C62F"/>
<path d="M37.7998 125.357C37.1455 125.364 36.6427 125.19 36.2864 124.825C35.9301 124.465 35.751 123.94 35.7443 123.255L35.6941 118.192L34.7024 118.202C34.6104 118.203 34.5386 118.178 34.4768 118.127C34.42 118.077 34.3885 117.995 34.3875 117.888L34.3817 117.305L35.7347 117.122L36.0416 114.562C36.0562 114.485 36.0964 114.413 36.1521 114.361C36.2078 114.31 36.2843 114.283 36.3763 114.282L37.1123 114.275L37.1406 117.124L39.5278 117.1L39.5382 118.154L37.151 118.177L37.2002 123.143C37.2036 123.496 37.288 123.751 37.4583 123.918C37.6287 124.085 37.8493 124.165 38.1151 124.162C38.2685 124.161 38.3961 124.139 38.5081 124.097C38.6202 124.055 38.7169 124.013 38.7982 123.961C38.8795 123.909 38.9455 123.868 39.0064 123.821C39.0623 123.785 39.1132 123.764 39.1541 123.763C39.2308 123.763 39.2977 123.808 39.3599 123.899L39.7911 124.591C39.5429 124.823 39.2431 125.011 38.8917 125.147C38.5403 125.283 38.1729 125.354 37.7998 125.357Z" fill="#E2C62F"/>
<path d="M41.1305 125.201L41.0486 116.931L41.8818 116.923C42.0352 116.921 42.1479 116.945 42.2098 117.006C42.2667 117.067 42.3086 117.169 42.3305 117.317L42.435 118.574C42.69 118.004 43.0077 117.556 43.3879 117.235C43.7682 116.914 44.2369 116.751 44.7838 116.745C44.9576 116.744 45.1265 116.757 45.2854 116.797C45.4493 116.831 45.593 116.891 45.7165 116.972L45.625 118.057C45.5906 118.195 45.5095 118.268 45.3817 118.269C45.3051 118.27 45.1924 118.25 45.0438 118.221C44.9004 118.187 44.7315 118.173 44.5424 118.175C44.2868 118.177 44.0521 118.221 43.8432 118.299C43.6396 118.383 43.4567 118.498 43.2997 118.653C43.1376 118.803 43.0014 118.983 42.8757 119.204C42.7501 119.425 42.6401 119.677 42.5407 119.959L42.5924 125.186L41.1305 125.201Z" fill="#E2C62F"/>
<path d="M48.3424 116.858L48.3946 122.131C48.4009 122.76 48.5487 123.239 48.8385 123.584C49.1281 123.919 49.5643 124.088 50.1521 124.083C50.5764 124.078 50.9742 123.977 51.3505 123.774C51.7216 123.566 52.0664 123.281 52.3747 122.92L52.3143 116.819L53.7712 116.804L53.8531 125.074L52.9892 125.083C52.7796 125.085 52.6508 124.989 52.5926 124.79L52.4713 123.896C52.1174 124.298 51.7168 124.625 51.2693 124.869C50.827 125.119 50.317 125.242 49.7394 125.248C49.2895 125.252 48.8901 125.185 48.541 125.035C48.1919 124.89 47.9036 124.683 47.6657 124.409C47.4279 124.14 47.2508 123.815 47.1294 123.427C47.008 123.04 46.9424 122.616 46.9378 122.145L46.8856 116.872L48.3424 116.858Z" fill="#E2C62F"/>
<path d="M56.1751 125.054L56.0932 116.784L56.9673 116.775C57.1718 116.773 57.3005 116.869 57.3536 117.068L57.4694 117.921C57.7673 117.539 58.1067 117.229 58.4877 116.985C58.8637 116.746 59.3072 116.619 59.8081 116.614C60.3602 116.608 60.8116 116.757 61.1623 117.066C61.5078 117.374 61.7625 117.791 61.9211 118.317C62.0408 118.014 62.1864 117.751 62.3734 117.535C62.5604 117.318 62.7682 117.137 63.002 116.991C63.2357 116.846 63.4851 116.741 63.7452 116.672C64.0103 116.603 64.2759 116.57 64.5468 116.567C64.9813 116.563 65.3705 116.625 65.7143 116.76C66.0582 116.895 66.3465 117.101 66.5842 117.36C66.8221 117.629 67.0093 117.954 67.1358 118.342C67.2675 118.729 67.3332 119.173 67.3382 119.675L67.3904 124.942L65.9284 124.957L65.8762 119.689C65.8698 119.04 65.7219 118.555 65.4374 118.22C65.1529 117.886 64.7423 117.726 64.2056 117.731C63.9704 117.734 63.7408 117.777 63.5269 117.861C63.3131 117.95 63.1252 118.075 62.9632 118.24C62.8012 118.405 62.6755 118.611 62.5859 118.862C62.4912 119.109 62.443 119.396 62.4462 119.723L62.4984 124.991L61.0415 125.005L60.9893 119.738C60.9828 119.073 60.845 118.583 60.5708 118.258C60.3017 117.929 59.9117 117.774 59.4005 117.779C59.0426 117.783 58.7113 117.883 58.4065 118.075C58.1068 118.273 57.8283 118.536 57.576 118.871L57.637 125.039L56.1751 125.054Z" fill="#E2C62F"/>
<path d="M75.6128 118.285L76.2109 118.279C76.4154 118.277 76.5838 118.25 76.706 118.197C76.8282 118.145 76.9448 118.052 77.0459 117.928L80.8974 113.481C81.0034 113.337 81.1149 113.238 81.237 113.186C81.3541 113.129 81.502 113.096 81.6758 113.095L83.0151 113.081L78.6075 118.168C78.5014 118.297 78.3952 118.406 78.2988 118.489C78.1975 118.577 78.0908 118.649 77.9737 118.702C78.1225 118.751 78.2561 118.821 78.3798 118.917C78.4983 119.013 78.617 119.13 78.7361 119.282L83.4377 124.785L82.0677 124.799C81.9655 124.8 81.8785 124.795 81.8017 124.781C81.73 124.766 81.6633 124.746 81.6119 124.716C81.5554 124.686 81.509 124.651 81.4677 124.61C81.4264 124.57 81.385 124.519 81.3487 124.468L77.2695 119.864C77.1608 119.727 77.0372 119.631 76.9139 119.576C76.7906 119.516 76.6013 119.498 76.3406 119.5L75.625 119.507L75.678 124.862L74.1035 124.878L73.9876 113.171L75.5621 113.155L75.6128 118.285Z" fill="#E2C62F"/>
<path d="M89.321 117.815C89.2558 117.933 89.1541 117.996 89.0212 117.997C88.9394 117.998 88.8471 117.968 88.7392 117.908C88.6364 117.852 88.513 117.787 88.3589 117.717C88.2099 117.642 88.0304 117.577 87.8253 117.513C87.6151 117.453 87.3694 117.425 87.0883 117.428C86.8429 117.43 86.6234 117.463 86.4297 117.526C86.231 117.595 86.0683 117.678 85.9262 117.792C85.7893 117.901 85.6883 118.03 85.6131 118.174C85.5429 118.318 85.5087 118.477 85.5104 118.645C85.5124 118.855 85.5756 119.034 85.6997 119.176C85.8186 119.312 85.9834 119.434 86.1838 119.539C86.3893 119.639 86.6151 119.724 86.8766 119.803C87.1329 119.877 87.3945 119.962 87.6663 120.051C87.933 120.135 88.1999 120.235 88.4565 120.34C88.7132 120.445 88.9445 120.581 89.1455 120.742C89.3465 120.899 89.5121 121.102 89.6371 121.336C89.7621 121.57 89.8263 121.856 89.8296 122.188C89.8333 122.567 89.7652 122.92 89.6356 123.249C89.5008 123.572 89.3042 123.856 89.0407 124.094C88.7772 124.331 88.4519 124.524 88.0648 124.666C87.6827 124.803 87.2336 124.874 86.7275 124.879C86.155 124.884 85.6275 124.797 85.1605 124.613C84.6883 124.433 84.2924 124.197 83.9623 123.903L84.2993 123.343C84.3395 123.276 84.3901 123.219 84.451 123.183C84.512 123.141 84.5885 123.12 84.6805 123.119C84.7776 123.118 84.8802 123.158 84.9883 123.234C85.1015 123.304 85.2302 123.39 85.3895 123.48C85.5439 123.576 85.7338 123.656 85.9595 123.73C86.1801 123.805 86.4616 123.838 86.7938 123.835C87.075 123.832 87.32 123.794 87.5339 123.715C87.7428 123.641 87.9207 123.537 88.0575 123.413C88.2045 123.289 88.3053 123.144 88.3702 122.98C88.435 122.811 88.4691 122.642 88.4672 122.457C88.4649 122.227 88.4018 122.039 88.2776 121.886C88.1534 121.739 87.9937 121.613 87.7881 121.508C87.5877 121.402 87.3568 121.312 87.0953 121.238C86.8389 121.164 86.5723 121.085 86.3005 120.996C86.0338 120.911 85.767 120.817 85.5052 120.707C85.2485 120.597 85.0171 120.461 84.8161 120.294C84.6099 120.127 84.4494 119.919 84.3242 119.67C84.1992 119.431 84.1348 119.125 84.1313 118.772C84.1282 118.455 84.1865 118.152 84.3166 117.859C84.4466 117.567 84.6332 117.309 84.8815 117.087C85.1298 116.864 85.4347 116.682 85.7964 116.551C86.158 116.414 86.5765 116.349 87.0468 116.344C87.5887 116.339 88.0802 116.416 88.5114 116.585C88.9476 116.755 89.3231 116.986 89.6429 117.28L89.321 117.815Z" fill="#E2C62F"/>
<path d="M97.2981 116.992C97.2991 117.099 97.2848 117.196 97.2499 117.294C97.2151 117.391 97.1649 117.479 97.1093 117.551L92.6853 123.554L97.2092 123.509L97.2205 124.644L90.9892 124.706L90.9832 124.102C90.9825 124.031 90.997 123.949 91.0318 123.851C91.0667 123.759 91.1118 123.666 91.1774 123.579L95.6214 117.53L91.1742 117.574L91.1629 116.434L97.292 116.373L97.2981 116.992Z" fill="#E2C62F"/>
<path d="M101.589 124.725C100.935 124.732 100.432 124.558 100.076 124.193C99.7243 123.833 99.5453 123.308 99.5385 122.623L99.4884 117.56L98.4916 117.569C98.4047 117.57 98.3278 117.546 98.2659 117.495C98.2092 117.444 98.1777 117.363 98.1766 117.256L98.1708 116.672L99.5238 116.49L99.8359 113.93C99.8504 113.853 99.8855 113.781 99.9413 113.729C99.997 113.678 100.073 113.651 100.165 113.65L100.902 113.643L100.93 116.492L103.317 116.468L103.327 117.522L100.94 117.545L100.989 122.511C100.993 122.864 101.077 123.119 101.247 123.286C101.418 123.453 101.638 123.533 101.904 123.53C102.058 123.529 102.19 123.507 102.297 123.465C102.409 123.423 102.506 123.381 102.587 123.329C102.669 123.277 102.74 123.236 102.796 123.189C102.851 123.153 102.902 123.132 102.943 123.131C103.02 123.13 103.087 123.176 103.149 123.267L103.58 123.959C103.332 124.191 103.032 124.378 102.681 124.515C102.329 124.651 101.962 124.721 101.589 124.725Z" fill="#E2C62F"/>
<path d="M107.013 123.658C107.269 123.655 107.504 123.627 107.713 123.574C107.927 123.521 108.126 123.442 108.309 123.348C108.497 123.249 108.675 123.13 108.847 122.99C109.02 122.85 109.182 122.69 109.344 122.514L109.327 120.801C108.657 120.833 108.09 120.89 107.621 120.977C107.146 121.068 106.769 121.179 106.469 121.32C106.179 121.456 105.966 121.622 105.829 121.808C105.698 121.998 105.634 122.198 105.636 122.428C105.638 122.648 105.676 122.837 105.749 122.99C105.822 123.148 105.921 123.275 106.044 123.381C106.168 123.477 106.312 123.547 106.476 123.597C106.645 123.636 106.824 123.66 107.013 123.658ZM110.14 124.517C109.997 124.518 109.89 124.499 109.813 124.448C109.735 124.408 109.673 124.317 109.631 124.179L109.46 123.408C109.242 123.605 109.034 123.781 108.826 123.936C108.618 124.097 108.399 124.227 108.175 124.337C107.952 124.446 107.712 124.531 107.452 124.589C107.192 124.648 106.906 124.677 106.589 124.68C106.267 124.683 105.965 124.645 105.683 124.561C105.401 124.472 105.149 124.336 104.943 124.159C104.731 123.982 104.56 123.759 104.435 123.484C104.31 123.209 104.245 122.882 104.241 122.509C104.238 122.181 104.327 121.869 104.503 121.565C104.679 121.262 104.968 120.988 105.369 120.753C105.771 120.514 106.29 120.315 106.938 120.16C107.586 120.005 108.377 119.91 109.317 119.875L109.311 119.231C109.305 118.592 109.162 118.107 108.883 117.778C108.598 117.453 108.193 117.293 107.661 117.299C107.303 117.302 107.002 117.346 106.758 117.441C106.518 117.535 106.31 117.634 106.132 117.749C105.959 117.863 105.807 117.967 105.68 118.055C105.553 118.148 105.426 118.195 105.303 118.197C105.206 118.198 105.119 118.173 105.047 118.117C104.974 118.067 104.918 118.006 104.866 117.93L104.6 117.467C105.051 117.023 105.544 116.685 106.068 116.46C106.592 116.24 107.179 116.127 107.818 116.121C108.283 116.116 108.693 116.189 109.057 116.339C109.417 116.488 109.72 116.695 109.969 116.964C110.217 117.232 110.404 117.563 110.53 117.951C110.662 118.333 110.728 118.757 110.732 119.217L110.784 124.51L110.14 124.517Z" fill="#E2C62F"/>
<path d="M115.027 112.434L115.071 116.888L116.598 116.213L116.606 117.042C116.608 117.221 116.537 117.339 116.39 117.402L115.082 117.993L115.146 124.463L113.689 124.477L113.63 118.544L112.164 119.198L112.156 118.344C112.154 118.196 112.22 118.088 112.357 118.015L113.619 117.429L113.57 112.448L115.027 112.434Z" fill="#E2C62F"/>
<path d="M123.723 117.576C123.683 117.638 123.637 117.69 123.597 117.721C123.551 117.757 123.495 117.773 123.418 117.774C123.336 117.774 123.244 117.745 123.146 117.674C123.048 117.598 122.925 117.533 122.781 117.447C122.632 117.372 122.457 117.302 122.247 117.228C122.037 117.168 121.776 117.135 121.474 117.138C121.065 117.142 120.708 117.212 120.398 117.364C120.087 117.505 119.834 117.722 119.627 118C119.42 118.274 119.265 118.602 119.161 118.992C119.058 119.377 119.011 119.812 119.016 120.288C119.021 120.789 119.081 121.238 119.198 121.626C119.319 122.013 119.481 122.334 119.698 122.603C119.905 122.862 120.163 123.059 120.461 123.199C120.759 123.329 121.092 123.397 121.465 123.394C121.817 123.39 122.108 123.346 122.338 123.262C122.562 123.173 122.75 123.079 122.897 122.975C123.049 122.867 123.171 122.773 123.273 122.69C123.369 122.602 123.471 122.55 123.568 122.549C123.69 122.548 123.783 122.598 123.845 122.685L124.259 123.223C124.083 123.444 123.88 123.636 123.657 123.797C123.428 123.957 123.184 124.093 122.919 124.203C122.66 124.308 122.379 124.392 122.094 124.441C121.803 124.495 121.512 124.524 121.215 124.527C120.694 124.532 120.212 124.439 119.771 124.254C119.324 124.07 118.933 123.787 118.607 123.437C118.277 123.077 118.017 122.635 117.827 122.105C117.633 121.585 117.535 120.983 117.528 120.302C117.522 119.689 117.603 119.12 117.772 118.597C117.936 118.073 118.182 117.616 118.505 117.229C118.834 116.857 119.234 116.557 119.713 116.337C120.196 116.123 120.747 116.01 121.371 116.004C121.954 115.998 122.471 116.09 122.912 116.27C123.359 116.455 123.755 116.717 124.101 117.056L123.723 117.576Z" fill="#E2C62F"/>
<path d="M129.065 116.988C128.364 116.995 127.814 117.205 127.415 117.613C127.015 118.021 126.77 118.586 126.68 119.308L131.199 119.263C131.195 118.926 131.146 118.619 131.051 118.334C130.952 118.059 130.811 117.82 130.625 117.612C130.444 117.414 130.218 117.258 129.956 117.148C129.694 117.038 129.397 116.984 129.065 116.988ZM129.023 115.919C129.514 115.914 129.975 115.997 130.401 116.156C130.822 116.316 131.192 116.552 131.502 116.861C131.812 117.17 132.056 117.557 132.234 118.015C132.413 118.474 132.505 118.994 132.511 119.583C132.513 119.813 132.489 119.966 132.444 120.044C132.393 120.116 132.302 120.158 132.169 120.159L126.638 120.214C126.653 120.74 126.729 121.19 126.866 121.577C126.998 121.965 127.185 122.28 127.412 122.538C127.645 122.792 127.918 122.989 128.236 123.108C128.554 123.233 128.907 123.296 129.301 123.292C129.664 123.288 129.975 123.239 130.24 123.155C130.505 123.065 130.729 122.976 130.917 122.877C131.111 122.778 131.268 122.679 131.395 122.601C131.517 122.508 131.629 122.466 131.721 122.465C131.844 122.464 131.936 122.509 132.004 122.6L132.418 123.128C132.236 123.345 132.023 123.541 131.779 123.702C131.525 123.868 131.261 124.004 130.976 124.109C130.69 124.214 130.395 124.294 130.094 124.348C129.787 124.407 129.486 124.436 129.19 124.439C128.617 124.444 128.09 124.347 127.607 124.163C127.125 123.973 126.703 123.691 126.346 123.326C125.995 122.956 125.714 122.494 125.515 121.949C125.31 121.403 125.212 120.77 125.205 120.054C125.199 119.481 125.28 118.938 125.449 118.435C125.623 117.932 125.875 117.5 126.198 117.129C126.527 116.757 126.933 116.462 127.406 116.252C127.885 116.033 128.42 115.925 129.023 115.919Z" fill="#E2C62F"/>
<path d="M134.314 124.279L134.232 116.009L135.107 116.001C135.311 115.999 135.44 116.094 135.493 116.293L135.614 117.192C135.973 116.795 136.374 116.469 136.816 116.219C137.258 115.969 137.774 115.841 138.356 115.835C138.806 115.831 139.206 115.899 139.55 116.049C139.899 116.193 140.192 116.405 140.425 116.679C140.658 116.948 140.835 117.279 140.961 117.666C141.083 118.049 141.148 118.473 141.153 118.943L141.205 124.211L139.743 124.225L139.691 118.958C139.685 118.334 139.537 117.849 139.247 117.504C138.957 117.159 138.521 116.995 137.938 117.001C137.504 117.005 137.101 117.111 136.73 117.325C136.359 117.533 136.019 117.818 135.711 118.174L135.771 124.265L134.314 124.279Z" fill="#E2C62F"/>
<path d="M144.974 124.176L143.522 124.191L143.44 115.921L144.892 115.906L144.974 124.176ZM145.173 113.305C145.175 113.443 145.15 113.576 145.095 113.7C145.04 113.823 144.965 113.931 144.869 114.029C144.777 114.127 144.666 114.2 144.538 114.258C144.411 114.31 144.273 114.337 144.13 114.338C143.992 114.34 143.859 114.316 143.736 114.266C143.613 114.211 143.505 114.14 143.412 114.044C143.319 113.948 143.246 113.841 143.189 113.719C143.131 113.596 143.104 113.464 143.103 113.326C143.101 113.182 143.126 113.044 143.181 112.916C143.236 112.792 143.306 112.679 143.397 112.581C143.488 112.488 143.595 112.41 143.717 112.353C143.839 112.295 143.972 112.269 144.11 112.267C144.253 112.266 144.391 112.29 144.52 112.345C144.648 112.4 144.761 112.476 144.854 112.567C144.952 112.663 145.03 112.775 145.087 112.897C145.145 113.024 145.172 113.162 145.173 113.305Z" fill="#E2C62F"/>
<path d="M149.471 123.237C149.727 123.234 149.962 123.207 150.176 123.153C150.385 123.1 150.583 123.021 150.772 122.927C150.96 122.828 151.138 122.709 151.305 122.569C151.477 122.429 151.644 122.269 151.806 122.094L151.789 120.38C151.12 120.413 150.548 120.469 150.078 120.556C149.609 120.648 149.227 120.759 148.932 120.9C148.636 121.036 148.423 121.201 148.292 121.387C148.156 121.577 148.092 121.778 148.094 122.008C148.096 122.228 148.139 122.416 148.207 122.569C148.285 122.727 148.378 122.854 148.502 122.96C148.626 123.056 148.77 123.126 148.939 123.176C149.103 123.215 149.282 123.239 149.471 123.237ZM152.603 124.096C152.46 124.097 152.347 124.078 152.27 124.028C152.198 123.987 152.136 123.896 152.094 123.758L151.917 122.988C151.705 123.184 151.492 123.36 151.284 123.516C151.076 123.676 150.857 123.806 150.633 123.916C150.409 124.026 150.17 124.11 149.91 124.169C149.655 124.227 149.369 124.256 149.047 124.259C148.73 124.262 148.428 124.224 148.146 124.14C147.859 124.051 147.612 123.915 147.4 123.738C147.189 123.561 147.023 123.338 146.898 123.063C146.772 122.788 146.703 122.461 146.699 122.088C146.696 121.761 146.785 121.448 146.961 121.144C147.137 120.841 147.425 120.567 147.827 120.333C148.228 120.093 148.748 119.894 149.401 119.739C150.043 119.584 150.84 119.49 151.78 119.455L151.774 118.81C151.767 118.171 151.62 117.687 151.34 117.357C151.056 117.032 150.65 116.873 150.119 116.878C149.761 116.882 149.46 116.925 149.22 117.02C148.976 117.114 148.772 117.214 148.595 117.328C148.417 117.442 148.27 117.546 148.138 117.634C148.011 117.727 147.888 117.775 147.761 117.776C147.664 117.777 147.576 117.752 147.509 117.697C147.437 117.646 147.375 117.585 147.329 117.509L147.058 117.046C147.514 116.602 148.001 116.265 148.526 116.04C149.055 115.82 149.637 115.706 150.281 115.7C150.741 115.695 151.156 115.768 151.515 115.918C151.874 116.068 152.178 116.274 152.426 116.543C152.674 116.812 152.862 117.142 152.993 117.53C153.12 117.912 153.185 118.336 153.19 118.796L153.242 124.09L152.603 124.096Z" fill="#E2C62F"/>
<path d="M161.502 117.434L162.1 117.428C162.304 117.426 162.467 117.399 162.595 117.346C162.722 117.294 162.828 117.201 162.935 117.077L166.781 112.63C166.892 112.486 167.004 112.387 167.126 112.335C167.243 112.277 167.391 112.245 167.565 112.244L168.904 112.23L164.496 117.317C164.385 117.446 164.284 117.555 164.188 117.637C164.086 117.725 163.98 117.798 163.868 117.85C164.011 117.9 164.145 117.97 164.268 118.066C164.387 118.162 164.506 118.279 164.62 118.431L169.332 123.934L167.956 123.948C167.854 123.949 167.767 123.944 167.69 123.93C167.619 123.915 167.552 123.895 167.501 123.865C167.444 123.835 167.398 123.8 167.356 123.759C167.315 123.719 167.274 123.668 167.237 123.617L163.153 119.013C163.05 118.876 162.931 118.78 162.803 118.725C162.674 118.665 162.485 118.647 162.234 118.649L161.514 118.656L161.567 124.011L159.992 124.026L159.876 112.32L161.451 112.304L161.502 117.434Z" fill="#E2C62F"/>
<path d="M172.471 123.009C172.726 123.006 172.961 122.979 173.17 122.925C173.384 122.872 173.583 122.793 173.771 122.699C173.954 122.6 174.137 122.481 174.304 122.341C174.472 122.201 174.644 122.041 174.801 121.866L174.784 120.152C174.114 120.185 173.547 120.241 173.078 120.328C172.609 120.42 172.226 120.531 171.931 120.672C171.636 120.808 171.418 120.973 171.292 121.159C171.156 121.349 171.091 121.55 171.093 121.78C171.096 122 171.138 122.188 171.206 122.341C171.28 122.499 171.378 122.626 171.502 122.732C171.625 122.828 171.769 122.898 171.938 122.948C172.102 122.987 172.281 123.011 172.471 123.009ZM175.603 123.868C175.455 123.869 175.347 123.85 175.27 123.8C175.193 123.759 175.136 123.668 175.088 123.53L174.917 122.76C174.699 122.956 174.491 123.132 174.283 123.288C174.075 123.448 173.857 123.578 173.633 123.688C173.409 123.798 173.169 123.882 172.909 123.941C172.654 123.999 172.363 124.028 172.046 124.031C171.724 124.034 171.427 123.996 171.145 123.912C170.858 123.823 170.611 123.687 170.395 123.51C170.189 123.333 170.018 123.11 169.892 122.835C169.767 122.56 169.702 122.233 169.699 121.86C169.695 121.533 169.784 121.22 169.96 120.916C170.136 120.613 170.425 120.339 170.826 120.105C171.228 119.865 171.747 119.666 172.395 119.511C173.043 119.356 173.834 119.262 174.775 119.227L174.768 118.582C174.762 117.943 174.619 117.459 174.34 117.129C174.055 116.804 173.65 116.645 173.118 116.65C172.76 116.654 172.459 116.697 172.215 116.792C171.975 116.886 171.772 116.986 171.589 117.1C171.416 117.214 171.264 117.318 171.137 117.406C171.01 117.499 170.883 117.547 170.76 117.548C170.663 117.549 170.576 117.524 170.509 117.469C170.437 117.418 170.37 117.357 170.328 117.281L170.058 116.818C170.513 116.374 171.001 116.037 171.525 115.812C172.055 115.592 172.636 115.478 173.28 115.472C173.741 115.467 174.155 115.54 174.515 115.69C174.874 115.84 175.178 116.046 175.426 116.315C175.674 116.584 175.861 116.914 175.993 117.302C176.119 117.684 176.185 118.108 176.189 118.568L176.242 123.862L175.603 123.868Z" fill="#E2C62F"/>
<path d="M181.613 122.749C182.093 122.744 182.506 122.632 182.867 122.409C183.218 122.19 183.542 121.88 183.839 121.478L183.8 117.484C183.525 117.129 183.226 116.876 182.908 116.731C182.59 116.591 182.236 116.518 181.848 116.521C181.081 116.529 180.496 116.811 180.082 117.368C179.679 117.919 179.477 118.709 179.487 119.721C179.492 120.263 179.543 120.723 179.639 121.106C179.734 121.488 179.875 121.804 180.052 122.048C180.238 122.297 180.46 122.474 180.722 122.583C180.983 122.699 181.281 122.752 181.613 122.749ZM184.45 123.784C184.241 123.786 184.112 123.685 184.054 123.486L183.916 122.48C183.562 122.913 183.162 123.265 182.709 123.525C182.257 123.786 181.742 123.924 181.154 123.929C180.679 123.934 180.248 123.846 179.858 123.671C179.468 123.491 179.138 123.228 178.864 122.878C178.584 122.523 178.375 122.085 178.222 121.555C178.068 121.029 177.991 120.421 177.984 119.736C177.978 119.133 178.054 118.564 178.212 118.036C178.371 117.507 178.596 117.05 178.899 116.663C179.202 116.271 179.572 115.961 180.015 115.737C180.457 115.512 180.952 115.4 181.509 115.394C182.015 115.389 182.451 115.467 182.81 115.632C183.175 115.802 183.499 116.04 183.789 116.349L183.743 111.761L185.195 111.747L185.314 123.776L184.45 123.784Z" fill="#E2C62F"/>
<path d="M187.613 123.749L187.531 115.479L188.359 115.471C188.518 115.469 188.63 115.494 188.687 115.555C188.749 115.615 188.791 115.717 188.813 115.865L188.917 117.123C189.172 116.552 189.495 116.104 189.875 115.783C190.251 115.462 190.719 115.299 191.266 115.294C191.44 115.292 191.609 115.306 191.768 115.345C191.932 115.379 192.07 115.439 192.199 115.52L192.107 116.605C192.073 116.744 191.992 116.816 191.864 116.817C191.787 116.818 191.675 116.799 191.526 116.769C191.378 116.735 191.214 116.721 191.03 116.723C190.769 116.726 190.534 116.769 190.326 116.848C190.122 116.932 189.939 117.046 189.782 117.201C189.62 117.351 189.479 117.531 189.358 117.752C189.233 117.974 189.123 118.225 189.018 118.508L189.07 123.735L187.613 123.749Z" fill="#E2C62F"/>
<path d="M203.625 113.715C203.575 113.797 203.524 113.859 203.468 113.901C203.407 113.942 203.341 113.963 203.259 113.964C203.167 113.965 203.06 113.92 202.931 113.829C202.802 113.738 202.648 113.638 202.457 113.527C202.267 113.416 202.041 113.321 201.78 113.232C201.518 113.137 201.19 113.094 200.817 113.098C200.465 113.102 200.153 113.151 199.883 113.251C199.618 113.35 199.39 113.481 199.207 113.646C199.03 113.806 198.894 114.002 198.804 114.223C198.714 114.444 198.67 114.685 198.673 114.94C198.676 115.268 198.756 115.538 198.926 115.751C199.082 115.964 199.298 116.146 199.566 116.297C199.828 116.448 200.131 116.578 200.464 116.682C200.803 116.791 201.146 116.905 201.495 117.02C201.849 117.134 202.193 117.268 202.532 117.413C202.866 117.564 203.169 117.75 203.432 117.972C203.7 118.2 203.912 118.479 204.079 118.81C204.241 119.141 204.327 119.549 204.332 120.03C204.337 120.541 204.255 121.023 204.085 121.475C203.916 121.926 203.664 122.318 203.33 122.653C203.001 122.989 202.595 123.259 202.106 123.448C201.622 123.647 201.071 123.745 200.447 123.751C199.691 123.758 198.994 123.632 198.373 123.362C197.747 123.092 197.216 122.724 196.772 122.263L197.22 121.507C197.26 121.445 197.316 121.393 197.377 121.357C197.443 121.31 197.509 121.289 197.586 121.288C197.657 121.288 197.734 121.318 197.827 121.373C197.919 121.428 198.022 121.499 198.136 121.585C198.249 121.676 198.383 121.766 198.532 121.867C198.676 121.973 198.846 122.064 199.031 122.149C199.221 122.234 199.436 122.303 199.677 122.357C199.918 122.416 200.189 122.439 200.485 122.436C200.864 122.432 201.195 122.378 201.491 122.267C201.781 122.162 202.03 122.017 202.228 121.825C202.43 121.639 202.587 121.413 202.691 121.151C202.801 120.889 202.855 120.597 202.851 120.275C202.848 119.922 202.758 119.631 202.597 119.408C202.437 119.184 202.225 118.997 201.963 118.846C201.701 118.695 201.398 118.57 201.06 118.466C200.716 118.367 200.378 118.258 200.024 118.149C199.675 118.04 199.336 117.916 198.998 117.771C198.659 117.626 198.355 117.445 198.092 117.207C197.829 116.979 197.617 116.69 197.45 116.339C197.288 115.987 197.197 115.558 197.191 115.037C197.187 114.623 197.27 114.223 197.425 113.838C197.585 113.447 197.811 113.097 198.115 112.798C198.419 112.493 198.795 112.254 199.243 112.07C199.691 111.887 200.206 111.79 200.789 111.784C201.443 111.777 202.037 111.874 202.576 112.073C203.115 112.278 203.588 112.575 204.001 112.964L203.625 113.715Z" fill="#E2C62F"/>
<path d="M209.716 116.287C209.241 116.292 208.828 116.404 208.477 116.627C208.122 116.845 207.793 117.155 207.5 117.557L207.54 121.562C207.804 121.917 208.098 122.165 208.416 122.31C208.735 122.455 209.093 122.523 209.482 122.519C210.259 122.512 210.849 122.235 211.258 121.678C211.666 121.127 211.858 120.337 211.848 119.32C211.842 118.783 211.792 118.318 211.696 117.935C211.595 117.547 211.459 117.237 211.272 116.988C211.091 116.739 210.869 116.562 210.608 116.452C210.346 116.337 210.049 116.284 209.716 116.287ZM206.125 126.368L206.016 115.296L206.89 115.287C207.094 115.285 207.223 115.381 207.276 115.58L207.408 116.561C207.757 116.128 208.157 115.781 208.615 115.516C209.067 115.25 209.587 115.112 210.175 115.106C210.656 115.102 211.091 115.189 211.476 115.365C211.866 115.545 212.196 115.813 212.476 116.163C212.75 116.518 212.964 116.961 213.118 117.486C213.266 118.012 213.344 118.619 213.35 119.305C213.357 119.913 213.285 120.482 213.127 121.01C212.969 121.539 212.738 121.996 212.435 122.383C212.127 122.769 211.757 123.075 211.314 123.299C210.872 123.524 210.377 123.641 209.82 123.646C209.314 123.652 208.884 123.569 208.514 123.404C208.154 123.238 207.83 123.006 207.551 122.697L207.587 126.354L206.125 126.368Z" fill="#E2C62F"/>
<path d="M218.725 122.42C219.543 122.412 220.148 122.129 220.547 121.578C220.94 121.027 221.137 120.263 221.127 119.286C221.118 118.299 220.905 117.534 220.501 116.985C220.092 116.442 219.481 116.172 218.663 116.18C218.249 116.184 217.887 116.259 217.581 116.401C217.276 116.547 217.023 116.754 216.821 117.022C216.619 117.295 216.474 117.624 216.37 118.008C216.277 118.403 216.236 118.843 216.24 119.334C216.25 120.311 216.457 121.071 216.866 121.615C217.276 122.158 217.897 122.428 218.725 122.42ZM218.652 115.04C219.255 115.034 219.798 115.125 220.285 115.325C220.773 115.52 221.19 115.802 221.536 116.167C221.882 116.537 222.153 116.979 222.337 117.504C222.526 118.024 222.619 118.611 222.625 119.261C222.631 119.916 222.55 120.499 222.372 121.028C222.198 121.551 221.936 121.999 221.598 122.376C221.259 122.747 220.847 123.033 220.364 123.237C219.88 123.441 219.339 123.549 218.736 123.555C218.128 123.561 217.575 123.464 217.087 123.27C216.6 123.075 216.183 122.798 215.837 122.433C215.485 122.063 215.22 121.621 215.036 121.101C214.847 120.576 214.749 119.994 214.743 119.339C214.736 118.69 214.822 118.1 215.001 117.577C215.175 117.048 215.431 116.601 215.775 116.224C216.114 115.852 216.525 115.562 217.009 115.358C217.492 115.148 218.044 115.046 218.652 115.04Z" fill="#E2C62F"/>
<path d="M224.513 123.383L224.431 115.113L225.259 115.105C225.417 115.104 225.53 115.128 225.587 115.189C225.649 115.25 225.691 115.352 225.713 115.5L225.817 116.757C226.072 116.187 226.395 115.738 226.775 115.418C227.155 115.097 227.619 114.933 228.166 114.928C228.34 114.926 228.509 114.94 228.668 114.979C228.832 115.014 228.97 115.074 229.099 115.154L229.002 116.239C228.973 116.378 228.892 116.45 228.764 116.451C228.687 116.452 228.575 116.433 228.426 116.404C228.277 116.369 228.114 116.356 227.93 116.357C227.664 116.36 227.434 116.403 227.225 116.482C227.022 116.566 226.839 116.68 226.682 116.835C226.52 116.985 226.378 117.166 226.258 117.387C226.132 117.608 226.022 117.86 225.918 118.142L225.97 123.369L224.513 123.383Z" fill="#E2C62F"/>
<path d="M232.992 123.423C232.338 123.429 231.835 123.255 231.479 122.891C231.128 122.531 230.949 122.006 230.942 121.321L230.892 116.257L229.895 116.267C229.808 116.268 229.731 116.243 229.674 116.193C229.613 116.142 229.581 116.061 229.58 115.953L229.574 115.37L230.927 115.188L231.239 112.628C231.254 112.551 231.289 112.479 231.345 112.427C231.4 112.375 231.477 112.349 231.569 112.348L232.305 112.341L232.333 115.189L234.725 115.166L234.736 116.219L232.343 116.243L232.393 121.209C232.396 121.562 232.48 121.817 232.651 121.984C232.821 122.151 233.042 122.231 233.308 122.228C233.461 122.227 233.594 122.205 233.701 122.163C233.813 122.121 233.909 122.079 233.991 122.027C234.072 121.975 234.143 121.933 234.199 121.887C234.255 121.85 234.306 121.829 234.347 121.829C234.428 121.828 234.495 121.874 234.552 121.965L234.984 122.656C234.735 122.889 234.441 123.076 234.084 123.213C233.733 123.349 233.371 123.419 232.992 123.423Z" fill="#E2C62F"/>
<path d="M239.78 122.211C240.597 122.203 241.203 121.921 241.601 121.369C241.995 120.818 242.192 120.054 242.182 119.077C242.172 118.09 241.96 117.325 241.556 116.777C241.147 116.233 240.536 115.963 239.718 115.971C239.304 115.976 238.947 116.051 238.636 116.192C238.331 116.338 238.077 116.545 237.875 116.813C237.679 117.086 237.529 117.415 237.43 117.8C237.332 118.194 237.29 118.635 237.295 119.126C237.305 120.103 237.512 120.863 237.921 121.406C238.335 121.949 238.951 122.219 239.78 122.211ZM239.706 114.831C240.31 114.825 240.858 114.917 241.345 115.116C241.828 115.311 242.245 115.593 242.591 115.958C242.937 116.328 243.207 116.771 243.391 117.296C243.581 117.815 243.678 118.403 243.685 119.052C243.691 119.707 243.605 120.291 243.426 120.819C243.252 121.343 242.991 121.79 242.652 122.167C242.313 122.539 241.902 122.824 241.424 123.028C240.94 123.233 240.394 123.34 239.791 123.346C239.182 123.352 238.629 123.255 238.142 123.061C237.654 122.866 237.237 122.589 236.891 122.224C236.545 121.854 236.275 121.412 236.091 120.892C235.901 120.367 235.804 119.785 235.797 119.13C235.791 118.481 235.877 117.892 236.056 117.368C236.23 116.84 236.491 116.392 236.83 116.015C237.169 115.644 237.58 115.353 238.063 115.149C238.547 114.94 239.098 114.837 239.706 114.831Z" fill="#E2C62F"/>
<path d="M244.477 114.912L245.622 114.901C245.735 114.9 245.832 114.929 245.909 114.99C245.992 115.046 246.044 115.117 246.07 115.198L247.707 120.506C247.755 120.695 247.798 120.884 247.836 121.068C247.878 121.246 247.911 121.425 247.943 121.609C247.982 121.424 248.032 121.245 248.081 121.065C248.135 120.881 248.19 120.691 248.249 120.501L249.939 115.129C249.969 115.047 250.014 114.975 250.086 114.923C250.151 114.866 250.233 114.84 250.33 114.839L250.969 114.833C251.076 114.831 251.169 114.856 251.241 114.912C251.308 114.962 251.354 115.033 251.386 115.115L253.146 120.453C253.199 120.641 253.257 120.83 253.305 121.014C253.358 121.202 253.406 121.381 253.454 121.559C253.483 121.38 253.517 121.201 253.556 121.016C253.595 120.832 253.639 120.642 253.683 120.447L255.246 115.107C255.275 115.02 255.326 114.948 255.402 114.891C255.478 114.834 255.565 114.802 255.672 114.801L256.761 114.79L254.169 123.087L253.019 123.098C252.876 123.1 252.778 123.009 252.72 122.825L250.839 117.233C250.792 117.11 250.755 116.983 250.728 116.855C250.696 116.728 250.67 116.605 250.638 116.478C250.619 116.606 250.589 116.729 250.56 116.862C250.53 116.99 250.501 117.118 250.461 117.247L248.656 122.865C248.612 123.05 248.5 123.143 248.332 123.145L247.243 123.155L244.477 114.912Z" fill="#E2C62F"/>
<path d="M260.802 125.468C260.757 125.576 260.696 125.663 260.625 125.73C260.549 125.793 260.437 125.83 260.284 125.831L259.205 125.842L260.686 122.543L257.194 114.788L258.451 114.776C258.579 114.774 258.677 114.799 258.754 114.865C258.826 114.925 258.873 114.997 258.904 115.068L261.169 120.262C261.211 120.385 261.254 120.507 261.296 120.624C261.333 120.742 261.364 120.859 261.396 120.987C261.465 120.74 261.545 120.494 261.634 120.248L263.725 115.02C263.76 114.938 263.815 114.861 263.891 114.804C263.972 114.747 264.059 114.72 264.156 114.719L265.312 114.708L260.802 125.468Z" fill="#E2C62F"/>
<path d="M272.15 116.105C272.11 116.167 272.065 116.219 272.024 116.25C271.973 116.286 271.917 116.302 271.841 116.303C271.759 116.303 271.672 116.274 271.574 116.203C271.471 116.127 271.352 116.062 271.203 115.976C271.059 115.901 270.885 115.831 270.675 115.757C270.459 115.697 270.203 115.664 269.902 115.667C269.493 115.671 269.136 115.741 268.825 115.893C268.515 116.034 268.261 116.251 268.049 116.529C267.843 116.803 267.687 117.131 267.589 117.521C267.485 117.906 267.439 118.341 267.443 118.817C267.448 119.318 267.509 119.767 267.625 120.155C267.747 120.542 267.908 120.863 268.126 121.132C268.333 121.391 268.59 121.588 268.883 121.728C269.186 121.858 269.519 121.926 269.887 121.923C270.24 121.919 270.531 121.875 270.76 121.791C270.989 121.702 271.177 121.608 271.325 121.504C271.472 121.396 271.599 121.302 271.695 121.219C271.801 121.131 271.898 121.079 271.995 121.078C272.118 121.077 272.205 121.127 272.273 121.214L272.687 121.752C272.51 121.973 272.308 122.165 272.084 122.325C271.851 122.486 271.607 122.622 271.347 122.732C271.087 122.837 270.807 122.921 270.521 122.97C270.23 123.024 269.939 123.053 269.638 123.056C269.121 123.061 268.64 122.968 268.198 122.783C267.752 122.599 267.365 122.316 267.03 121.966C266.704 121.606 266.444 121.164 266.25 120.634C266.06 120.114 265.962 119.512 265.956 118.831C265.95 118.218 266.031 117.649 266.194 117.126C266.363 116.602 266.609 116.145 266.932 115.758C267.261 115.386 267.662 115.086 268.14 114.866C268.624 114.652 269.175 114.539 269.798 114.533C270.381 114.527 270.893 114.619 271.34 114.799C271.787 114.984 272.183 115.246 272.529 115.585L272.15 116.105Z" fill="#E2C62F"/>
<path d="M274.265 122.886L274.146 110.857L275.608 110.842L275.656 115.711C276.005 115.329 276.396 115.024 276.823 114.794C277.25 114.565 277.74 114.448 278.307 114.442C278.752 114.438 279.157 114.505 279.501 114.655C279.85 114.8 280.143 115.012 280.376 115.286C280.604 115.555 280.786 115.885 280.912 116.273C281.034 116.655 281.099 117.079 281.104 117.55L281.156 122.817L279.694 122.832L279.642 117.564C279.636 116.94 279.488 116.456 279.198 116.111C278.908 115.766 278.472 115.601 277.889 115.607C277.455 115.611 277.052 115.718 276.681 115.931C276.31 116.139 275.97 116.424 275.667 116.78L275.727 122.871L274.265 122.886Z" fill="#E2C62F"/>
</svg>
